<?xml version="1.0"?>
<svg version="1.1" xmlns="http://www.w3.org/2000/svg" xmlns:xlink="http://www.w3.org/1999/xlink" width="100" height="100">
    <desc iVinci="yes" version="4.4" gridStep="20" showGrid="no" snapToGrid="no" codePlatform="0"/>
    <g id="Layer1">
        <g id="Shape1">
            <desc type="0" basicInfo-basicType="0" basicInfo-roundedRectRadius="12" basicInfo-polygonSides="6" basicInfo-starPoints="5" bounding="rect(-43.2211,-43.2204,86.4422,86.4409)" text="" font-familyName="" font-pixelSize="20" font-bold="0" font-underline="0" font-alignment="1" strokeStyle="0" markerStart="0" markerEnd="0" shadowEnabled="0" shadowOffsetX="0" shadowOffsetY="2" shadowBlur="4" shadowOpacity="160" blurEnabled="0" blurRadius="4" transform="matrix(1,0,0,1,49.9986,48.9989)" pers-center="0,0" pers-size="0,0" pers-start="0,0" pers-end="0,0" locked="0" mesh="" flag=""/>
            <path id="shapePath1" d="M67.361,16.16 C53.521,2.318 31.001,2.318 17.159,16.16 C3.317,30 3.317,52.521 17.159,66.361 C30.525,79.728 51.984,80.183 65.907,67.734 L68.72,70.547 C68.019,72.344 68.386,74.455 69.834,75.904 L84.685,90.755 C86.638,92.708 89.804,92.707 91.755,90.755 C93.708,88.805 93.708,85.639 91.755,83.686 L76.905,68.836 C75.456,67.389 73.341,67.022 71.548,67.723 L68.734,64.907 C81.188,50.984 80.729,29.525 67.361,16.16 M21.401,62.12 C9.899,50.618 9.899,31.904 21.401,20.402 C32.903,8.899 51.619,8.9 63.121,20.402 C74.623,31.904 74.623,50.619 63.121,62.121 C51.619,73.623 32.903,73.622 21.401,62.12 " style="stroke:none;fill-rule:nonzero;fill:#64ad97;fill-opacity:1;"/>
        </g>
        <g id="Shape2">
            <desc type="0" basicInfo-basicType="0" basicInfo-roundedRectRadius="12" basicInfo-polygonSides="6" basicInfo-starPoints="5" bounding="rect(-3.9895,-20,7.979,40)" text="" font-familyName="" font-pixelSize="20" font-bold="0" font-underline="0" font-alignment="1" strokeStyle="0" markerStart="0" markerEnd="0" shadowEnabled="0" shadowOffsetX="0" shadowOffsetY="2" shadowBlur="4" shadowOpacity="160" blurEnabled="0" blurRadius="4" transform="matrix(1,0,0,1,42.2615,40.199)" pers-center="0,0" pers-size="0,0" pers-start="0,0" pers-end="0,0" locked="0" mesh="" flag=""/>
            <path id="shapePath2" d="M39.354,42.815 L38.51,30.16 C38.351,27.694 38.272,25.924 38.272,24.849 C38.272,23.387 38.655,22.246 39.421,21.428 C40.187,20.61 41.195,20.199 42.446,20.199 C43.961,20.199 44.973,20.723 45.484,21.771 C45.995,22.819 46.251,24.33 46.251,26.302 C46.251,27.465 46.189,28.645 46.065,29.843 L44.93,42.868 C44.807,44.418 44.542,45.607 44.137,46.435 C43.732,47.263 43.063,47.677 42.129,47.677 C41.178,47.677 40.518,47.276 40.148,46.475 C39.777,45.673 39.514,44.453 39.354,42.815 M42.287,60.199 C41.213,60.199 40.275,59.851 39.474,59.154 C38.672,58.46 38.272,57.486 38.272,56.236 C38.272,55.144 38.655,54.215 39.421,53.449 C40.188,52.681 41.125,52.301 42.234,52.301 C43.343,52.301 44.291,52.684 45.075,53.449 C45.858,54.215 46.251,55.144 46.251,56.236 C46.251,57.468 45.855,58.437 45.062,59.142 C44.27,59.848 43.344,60.199 42.287,60.199 " style="stroke:none;fill-rule:nonzero;fill:#64ad97;fill-opacity:1;"/>
        </g>
        <g id="Shape3">
            <desc type="0" basicInfo-basicType="0" basicInfo-roundedRectRadius="12" basicInfo-polygonSides="6" basicInfo-starPoints="5" bounding="rect(-18,-2,36,4)" text="" font-familyName="" font-pixelSize="20" font-bold="0" font-underline="0" font-alignment="1" strokeStyle="0" markerStart="0" markerEnd="0" shadowEnabled="0" shadowOffsetX="0" shadowOffsetY="2" shadowBlur="4" shadowOpacity="160" blurEnabled="0" blurRadius="4" transform="matrix(1,0,0,1,42.262,83.501)" pers-center="0,0" pers-size="0,0" pers-start="0,0" pers-end="0,0" locked="0" mesh="" flag=""/>
            <path id="shapePath3" d="M24.262,81.501 L60.262,81.501 L60.262,85.501 L24.262,85.501 L24.262,81.501 Z" style="stroke:none;fill-rule:evenodd;fill:#64ad97;fill-opacity:1;"/>
        </g>
        <g id="Shape4">
            <desc type="0" basicInfo-basicType="0" basicInfo-roundedRectRadius="12" basicInfo-polygonSides="6" basicInfo-starPoints="5" bounding="rect(-10,-2,20,4)" text="" font-familyName="" font-pixelSize="20" font-bold="0" font-underline="0" font-alignment="1" strokeStyle="0" markerStart="0" markerEnd="0" shadowEnabled="0" shadowOffsetX="0" shadowOffsetY="2" shadowBlur="4" shadowOpacity="160" blurEnabled="0" blurRadius="4" transform="matrix(1,0,0,1,42.261,92.223)" pers-center="0,0" pers-size="0,0" pers-start="0,0" pers-end="0,0" locked="0" mesh="" flag=""/>
            <path id="shapePath4" d="M32.261,90.223 L52.261,90.223 L52.261,94.223 L32.261,94.223 L32.261,90.223 Z" style="stroke:none;fill-rule:evenodd;fill:#64ad97;fill-opacity:1;"/>
        </g>
    </g>
</svg>
