<?xml version="1.0"?>
<svg version="1.1" xmlns="http://www.w3.org/2000/svg" xmlns:xlink="http://www.w3.org/1999/xlink" width="100" height="100">
    <desc iVinci="yes" version="4.4" gridStep="20" showGrid="no" snapToGrid="no" codePlatform="0"/>
    <g id="Layer1">
        <g id="Shape1">
            <desc type="0" basicInfo-basicType="0" basicInfo-roundedRectRadius="12" basicInfo-polygonSides="6" basicInfo-starPoints="5" bounding="rect(-24.99,-25,49.98,50)" text="" font-familyName="" font-pixelSize="20" font-bold="0" font-underline="0" font-alignment="1" strokeStyle="0" markerStart="0" markerEnd="0" shadowEnabled="0" shadowOffsetX="0" shadowOffsetY="2" shadowBlur="4" shadowOpacity="160" blurEnabled="0" blurRadius="4" transform="matrix(1,0,0,1,72.952,72.797)" pers-center="0,0" pers-size="0,0" pers-start="0,0" pers-end="0,0" locked="0" mesh="" flag=""/>
            <path id="shapePath1" d="M97.942,75.222 C97.553,74.921 48.409,47.987 47.962,47.797 L75.384,97.797 C75.439,90.276 75.394,82.751 75.405,75.229 C82.917,75.219 90.431,75.229 97.942,75.222 Z" style="stroke:none;fill-rule:nonzero;fill:#64ad97;fill-opacity:1;"/>
        </g>
        <g id="Shape2">
            <desc type="0" basicInfo-basicType="0" basicInfo-roundedRectRadius="12" basicInfo-polygonSides="6" basicInfo-starPoints="5" bounding="rect(-23,-23,46,46)" text="" font-familyName="" font-pixelSize="20" font-bold="0" font-underline="0" font-alignment="1" strokeStyle="0" markerStart="0" markerEnd="0" shadowEnabled="0" shadowOffsetX="0" shadowOffsetY="2" shadowBlur="4" shadowOpacity="160" blurEnabled="0" blurRadius="4" transform="matrix(1,0,0,1,45.059,45.203)" pers-center="0,0" pers-size="0,0" pers-start="0,0" pers-end="0,0" locked="0" mesh="" flag=""/>
            <path id="shapePath2" d="M50.752,61.202 C48.969,61.838 47.058,62.203 45.059,62.203 C35.685,62.203 28.059,54.577 28.059,45.203 C28.059,35.829 35.685,28.203 45.059,28.203 C54.433,28.203 62.059,35.829 62.059,45.203 C62.059,47.047 61.754,48.818 61.209,50.481 C62.889,51.399 64.682,52.38 66.544,53.399 C67.519,50.851 68.059,48.089 68.059,45.203 C68.059,32.521 57.742,22.203 45.059,22.203 C32.376,22.203 22.059,32.521 22.059,45.203 C22.059,57.885 32.376,68.203 45.059,68.203 C48.103,68.203 51.009,67.603 53.671,66.524 L50.752,61.202 Z" style="stroke:none;fill-rule:nonzero;fill:#64ad97;fill-opacity:1;"/>
        </g>
        <g id="Shape3">
            <desc type="0" basicInfo-basicType="0" basicInfo-roundedRectRadius="12" basicInfo-polygonSides="6" basicInfo-starPoints="5" bounding="rect(-43.0005,-43,86.001,86)" text="" font-familyName="" font-pixelSize="20" font-bold="0" font-underline="0" font-alignment="1" strokeStyle="0" markerStart="0" markerEnd="0" shadowEnabled="0" shadowOffsetX="0" shadowOffsetY="2" shadowBlur="4" shadowOpacity="160" blurEnabled="0" blurRadius="4" transform="matrix(1,0,0,1,45.0575,45.203)" pers-center="0,0" pers-size="0,0" pers-start="0,0" pers-end="0,0" locked="0" mesh="" flag=""/>
            <path id="shapePath3" d="M60.429,78.847 C55.744,80.995 50.541,82.203 45.059,82.203 C24.657,82.203 8.058,65.605 8.058,45.203 C8.058,24.801 24.657,8.203 45.059,8.203 C65.461,8.203 82.059,24.801 82.059,45.203 C82.059,50.525 80.92,55.585 78.888,60.162 C80.685,61.147 82.455,62.119 84.161,63.057 C86.656,57.615 88.058,51.572 88.058,45.203 C88.058,21.493 68.768,2.203 45.058,2.203 C21.347,2.203 2.057,21.493 2.057,45.203 C2.057,68.913 21.347,88.203 45.058,88.203 C51.585,88.203 57.774,86.734 63.321,84.121 L60.429,78.847 Z" style="stroke:none;fill-rule:nonzero;fill:#64ad97;fill-opacity:1;"/>
        </g>
    </g>
</svg>
