<?xml version="1.0"?>
<svg version="1.1" xmlns="http://www.w3.org/2000/svg" xmlns:xlink="http://www.w3.org/1999/xlink" width="100" height="100">
    <desc iVinci="yes" version="4.4" gridStep="20" showGrid="no" snapToGrid="no" codePlatform="0"/>
    <g id="Layer1">
        <g id="Shape1">
            <desc type="0" basicInfo-basicType="0" basicInfo-roundedRectRadius="12" basicInfo-polygonSides="6" basicInfo-starPoints="5" bounding="rect(-25.2191,-25.5411,50.4382,51.0823)" text="" font-familyName="" font-pixelSize="20" font-bold="0" font-underline="0" font-alignment="1" strokeStyle="0" markerStart="0" markerEnd="0" shadowEnabled="0" shadowOffsetX="0" shadowOffsetY="2" shadowBlur="4" shadowOpacity="160" blurEnabled="0" blurRadius="4" transform="matrix(1,0,0,1,28.7669,56.8216)" pers-center="0,0" pers-size="0,0" pers-start="0,0" pers-end="0,0" locked="0" mesh="" flag=""/>
            <path id="shapePath1" d="M43.692,60.428 L31.006,73.113 C26.391,77.726 18.552,77.398 13.532,72.379 C8.512,67.358 8.182,59.522 12.798,54.904 L27.172,40.53 C31.787,35.915 39.626,36.245 44.646,41.264 C46.783,43.401 48.061,46.047 48.478,48.739 C50.338,48.545 52.092,47.783 53.457,46.419 L53.986,45.89 C53.138,42.668 51.449,39.583 48.887,37.023 C41.528,29.663 29.883,29.334 22.929,36.289 L8.556,50.662 C1.601,57.615 1.931,69.262 9.29,76.621 C16.649,83.98 28.294,84.309 35.249,77.355 L49.622,62.982 C50.436,62.168 51.143,61.283 51.758,60.353 C49.121,60.895 46.383,60.906 43.692,60.428 Z" style="stroke:none;fill-rule:nonzero;fill:#64ad97;fill-opacity:1;"/>
        </g>
        <g id="Shape2">
            <desc type="0" basicInfo-basicType="0" basicInfo-roundedRectRadius="12" basicInfo-polygonSides="6" basicInfo-starPoints="5" bounding="rect(-25.2186,-25.5407,50.4373,51.0815)" text="" font-familyName="" font-pixelSize="20" font-bold="0" font-underline="0" font-alignment="1" strokeStyle="0" markerStart="0" markerEnd="0" shadowEnabled="0" shadowOffsetX="0" shadowOffsetY="2" shadowBlur="4" shadowOpacity="160" blurEnabled="0" blurRadius="4" transform="matrix(1,0,0,1,53.9826,32.25)" pers-center="0,0" pers-size="0,0" pers-start="0,0" pers-end="0,0" locked="0" mesh="" flag=""/>
            <path id="shapePath2" d="M47.502,11.717 L33.127,26.091 C32.311,26.907 31.605,27.792 30.989,28.723 C33.626,28.183 36.365,28.166 39.054,28.648 L51.743,15.959 C56.357,11.344 64.197,11.674 69.217,16.694 C74.237,21.714 74.567,29.552 69.951,34.167 L55.578,48.541 C50.963,53.156 43.125,52.827 38.104,47.807 C35.967,45.67 34.689,43.022 34.272,40.33 C32.412,40.523 30.657,41.289 29.293,42.652 L28.764,43.181 C29.612,46.404 31.301,49.488 33.863,52.049 C41.222,59.408 52.867,59.737 59.821,52.783 L74.193,38.41 C81.148,31.455 80.818,19.811 73.46,12.452 C66.102,5.093 54.456,4.762 47.502,11.717 Z" style="stroke:none;fill-rule:nonzero;fill:#64ad97;fill-opacity:1;"/>
        </g>
        <g id="Shape3">
            <desc type="0" basicInfo-basicType="0" basicInfo-roundedRectRadius="12" basicInfo-polygonSides="6" basicInfo-starPoints="5" bounding="rect(-19.9995,-20.001,39.999,40.002)" text="" font-familyName="" font-pixelSize="20" font-bold="0" font-underline="0" font-alignment="1" strokeStyle="0" markerStart="0" markerEnd="0" shadowEnabled="0" shadowOffsetX="0" shadowOffsetY="2" shadowBlur="4" shadowOpacity="160" blurEnabled="0" blurRadius="4" transform="matrix(1,0,0,1,77.0005,78.612)" pers-center="0,0" pers-size="0,0" pers-start="0,0" pers-end="0,0" locked="0" mesh="" flag=""/>
            <path id="shapePath3" d="M77.001,58.611 C65.954,58.611 57.001,67.566 57.001,78.611 C57.001,89.656 65.954,98.613 77.001,98.613 C88.047,98.613 97,89.656 97,78.611 C97,67.566 88.047,58.611 77.001,58.611 M88.751,82.732 L81.354,82.732 L81.354,90.16 C81.354,92.496 79.46,94.387 77.125,94.387 C74.79,94.387 72.896,92.496 72.896,90.16 L72.896,82.732 L65.498,82.732 C63.165,82.732 61.271,80.837 61.271,78.503 C61.271,76.169 63.165,74.275 65.498,74.275 L72.896,74.275 L72.896,66.906 C72.896,64.572 74.79,62.679 77.125,62.679 C79.46,62.679 81.354,64.572 81.354,66.906 L81.354,74.275 L88.751,74.275 C91.086,74.275 92.98,76.169 92.98,78.503 C92.979,80.839 91.086,82.732 88.751,82.732 " style="stroke:none;fill-rule:nonzero;fill:#64ad97;fill-opacity:1;"/>
        </g>
    </g>
</svg>
