<?xml version="1.0"?>
<svg version="1.1" xmlns="http://www.w3.org/2000/svg" xmlns:xlink="http://www.w3.org/1999/xlink" width="100" height="100">
    <desc iVinci="yes" version="4.4" gridStep="20" showGrid="no" snapToGrid="no" codePlatform="0"/>
    <g id="Layer1">
        <g id="Shape1">
            <desc type="0" basicInfo-basicType="0" basicInfo-roundedRectRadius="12" basicInfo-polygonSides="6" basicInfo-starPoints="5" bounding="rect(-50,-50,100,100)" text="" font-familyName="" font-pixelSize="20" font-bold="0" font-underline="0" font-alignment="1" strokeStyle="0" markerStart="0" markerEnd="0" shadowEnabled="0" shadowOffsetX="0" shadowOffsetY="2" shadowBlur="4" shadowOpacity="160" blurEnabled="0" blurRadius="4" transform="matrix(1,0,0,1,50,50)" pers-center="0,0" pers-size="0,0" pers-start="0,0" pers-end="0,0" locked="0" mesh="" flag=""/>
            <path id="shapePath1" d="M50,0 C22.43,0 0,22.43 0,50 C0,77.57 22.43,100 50,100 C77.57,100 100,77.57 100,50 C100,22.43 77.57,0 50,0 M53,93.887 L53,86 L47,86 L47,93.887 C25.126,92.404 7.595,74.874 6.114,53 L14,53 L14,47 L6.114,47 C7.595,25.126 25.126,7.595 47,6.114 L47,14 L53,14 L53,6.114 C74.874,7.595 92.404,25.126 93.887,47 L86,47 L86,53 L93.887,53 C92.404,74.874 74.874,92.404 53,93.887 " style="stroke:none;fill-rule:nonzero;fill:#64ad97;fill-opacity:1;"/>
        </g>
        <g id="Shape2">
            <desc type="0" basicInfo-basicType="0" basicInfo-roundedRectRadius="12" basicInfo-polygonSides="6" basicInfo-starPoints="5" bounding="rect(-11.218,-16.8295,22.4361,33.659)" text="" font-familyName="" font-pixelSize="20" font-bold="0" font-underline="0" font-alignment="1" strokeStyle="0" markerStart="0" markerEnd="0" shadowEnabled="0" shadowOffsetX="0" shadowOffsetY="2" shadowBlur="4" shadowOpacity="160" blurEnabled="0" blurRadius="4" transform="matrix(1,0,0,1,31.218,44.1715)" pers-center="0,0" pers-size="0,0" pers-start="0,0" pers-end="0,0" locked="0" mesh="" flag=""/>
            <path id="shapePath2" d="M29.039,59.521 C32.134,57.466 35.57,56.234 38.893,55.136 C39.371,54.98 39.847,54.769 40.322,54.611 L40.42,54.55 C41.123,54.304 41.788,54.06 42.332,53.761 C42.357,53.701 42.393,53.599 42.436,53.441 C39.7,49.448 37.84,43.272 37.84,37.983 C37.84,33.497 39.25,30.17 41.908,28.147 C40.76,27.565 39.372,27.342 37.88,27.342 C33.903,27.342 30.68,28.93 30.68,34.634 C30.68,38.422 32.1,43.067 34.219,45.764 C34.198,45.977 34.174,46.191 34.135,46.403 C34.008,46.983 33.806,47.632 33.264,47.954 C32.657,48.315 31.981,48.544 31.317,48.776 C28.563,49.703 25.713,50.52 23.27,52.145 C21.999,52.981 21.137,54.645 20.663,56.071 C20.173,57.553 19.972,59.001 20.003,61.001 L27.513,61.001 C27.99,60 28.498,59.876 29.039,59.521 Z" style="stroke:none;fill-rule:nonzero;fill:#64ad97;fill-opacity:1;"/>
        </g>
        <g id="Shape3">
            <desc type="0" basicInfo-basicType="0" basicInfo-roundedRectRadius="12" basicInfo-polygonSides="6" basicInfo-starPoints="5" bounding="rect(-11.2563,-16.83,22.5126,33.66)" text="" font-familyName="" font-pixelSize="20" font-bold="0" font-underline="0" font-alignment="1" strokeStyle="0" markerStart="0" markerEnd="0" shadowEnabled="0" shadowOffsetX="0" shadowOffsetY="2" shadowBlur="4" shadowOpacity="160" blurEnabled="0" blurRadius="4" transform="matrix(1,0,0,1,68.7433,44.17)" pers-center="0,0" pers-size="0,0" pers-start="0,0" pers-end="0,0" locked="0" mesh="" flag=""/>
            <path id="shapePath3" d="M76.732,52.199 C74.287,50.576 71.437,49.732 68.683,48.805 C68.019,48.573 67.342,48.329 66.736,47.968 C66.193,47.646 65.99,46.989 65.865,46.41 C65.81,46.103 65.775,45.791 65.76,45.481 C67.756,42.749 69.08,38.291 69.08,34.635 C69.08,28.929 65.857,27.34 61.881,27.34 C60.367,27.34 58.967,27.572 57.807,28.171 C60.444,30.197 61.842,33.513 61.842,37.981 C61.842,43.131 60.113,49.06 57.487,53.079 C57.496,53.124 57.504,53.169 57.51,53.214 C57.578,53.527 57.635,53.69 57.67,53.772 C58.246,54.091 58.936,54.344 59.705,54.616 L60.857,54.999 C64.267,56.132 67.793,57.502 70.967,59.61 C71.482,59.945 71.966,60 72.421,61 L79.997,61 C80.025,59 79.825,57.553 79.337,56.07 C78.863,54.646 78.002,53.037 76.732,52.199 Z" style="stroke:none;fill-rule:nonzero;fill:#64ad97;fill-opacity:1;"/>
        </g>
        <g id="Shape4">
            <desc type="0" basicInfo-basicType="0" basicInfo-roundedRectRadius="12" basicInfo-polygonSides="6" basicInfo-starPoints="5" bounding="rect(-24.001,-22.3715,48.0019,44.743)" text="" font-familyName="" font-pixelSize="20" font-bold="0" font-underline="0" font-alignment="1" strokeStyle="0" markerStart="0" markerEnd="0" shadowEnabled="0" shadowOffsetX="0" shadowOffsetY="2" shadowBlur="4" shadowOpacity="160" blurEnabled="0" blurRadius="4" transform="matrix(1,0,0,1,50.0001,50.6285)" pers-center="0,0" pers-size="0,0" pers-start="0,0" pers-end="0,0" locked="0" mesh="" flag=""/>
            <path id="shapePath4" d="M69.643,61.422 C66.383,59.26 62.584,58.121 58.914,56.887 C58.026,56.576 57.127,56.246 56.317,55.764 C55.592,55.334 55.323,54.459 55.155,53.686 C55.082,53.276 55.035,52.858 55.012,52.444 C57.674,48.803 59.44,42.859 59.44,37.985 C59.44,30.377 55.143,28.257 49.84,28.257 C44.537,28.257 40.24,30.375 40.24,37.982 C40.24,43.031 42.133,49.226 44.957,52.823 C44.931,53.106 44.897,53.389 44.847,53.674 C44.678,54.445 44.408,55.314 43.686,55.741 C42.874,56.221 41.975,56.526 41.088,56.838 C37.416,58.073 33.617,59.164 30.359,61.328 C28.664,62.442 27.515,64.597 26.882,66.498 C26.23,68.469 25.963,71 26.003,73 L50,73 L73.997,73 C74.038,71 73.769,68.469 73.118,66.496 C72.484,64.594 71.336,62.539 69.643,61.422 Z" style="stroke:none;fill-rule:nonzero;fill:#64ad97;fill-opacity:1;"/>
        </g>
    </g>
</svg>
