<?xml version="1.0"?>
<svg version="1.1" xmlns="http://www.w3.org/2000/svg" xmlns:xlink="http://www.w3.org/1999/xlink" width="100" height="100">
    <desc iVinci="yes" version="4.4" gridStep="20" showGrid="no" snapToGrid="no" codePlatform="0"/>
    <g id="Layer1">
        <g id="Shape1">
            <desc type="0" basicInfo-basicType="0" basicInfo-roundedRectRadius="12" basicInfo-polygonSides="6" basicInfo-starPoints="5" bounding="rect(-41.4636,-50,82.9272,99.9999)" text="" font-familyName="" font-pixelSize="20" font-bold="0" font-underline="0" font-alignment="1" strokeStyle="0" markerStart="0" markerEnd="0" shadowEnabled="0" shadowOffsetX="0" shadowOffsetY="2" shadowBlur="4" shadowOpacity="160" blurEnabled="0" blurRadius="4" transform="matrix(1,0,0,1,50.0001,50)" pers-center="0,0" pers-size="0,0" pers-start="0,0" pers-end="0,0" locked="0" mesh="" flag=""/>
            <path id="shapePath1" d="M79.354,12.09 C63.146,-4.117 36.958,-3.986 20.75,12.221 C4.542,28.428 4.428,54.676 20.633,70.881 L49.919,100 L79.262,70.652 C95.471,54.443 95.56,28.299 79.354,12.09 M49.997,76.756 C30.394,76.756 14.5,60.864 14.5,41.259 C14.5,21.649 30.395,5.754 49.997,5.754 C69.606,5.754 85.5,21.649 85.5,41.259 C85.493,60.864 69.606,76.756 49.997,76.756 " style="stroke:none;fill-rule:nonzero;fill:#64ad97;fill-opacity:1;"/>
        </g>
        <g id="Shape2">
            <desc type="0" basicInfo-basicType="0" basicInfo-roundedRectRadius="12" basicInfo-polygonSides="6" basicInfo-starPoints="5" bounding="rect(-25.0014,-24.0005,50.0029,48.0011)" text="" font-familyName="" font-pixelSize="20" font-bold="0" font-underline="0" font-alignment="1" strokeStyle="0" markerStart="0" markerEnd="0" shadowEnabled="0" shadowOffsetX="0" shadowOffsetY="2" shadowBlur="4" shadowOpacity="160" blurEnabled="0" blurRadius="4" transform="matrix(1,0,0,1,49.9985,39.2615)" pers-center="0,0" pers-size="0,0" pers-start="0,0" pers-end="0,0" locked="0" mesh="" flag=""/>
            <path id="shapePath2" d="M48.025,16.008 C49.542,14.709 52.205,15.145 53.065,16.998 C54.809,21.319 56.522,25.654 58.255,29.978 C58.285,30.124 58.422,30.175 58.558,30.175 C62.895,30.471 67.23,30.824 71.568,31.135 C72.811,31.161 74.045,31.846 74.608,32.976 C75.304,34.245 75.07,36.005 73.931,36.944 C70.433,39.82 66.967,42.735 63.478,45.62 C63.38,45.703 63.283,45.789 63.217,45.899 C64.203,50.19 65.307,54.46 66.339,58.742 C67.12,60.89 65.289,63.423 62.989,63.254 C62.195,63.244 61.502,62.812 60.869,62.378 C57.449,60.217 54.027,58.055 50.603,55.897 C50.311,55.718 50.036,55.494 49.708,55.389 C45.827,57.725 42.006,60.168 38.135,62.525 C37.071,63.16 35.657,63.15 34.612,62.48 C33.509,61.824 32.832,60.471 33.091,59.195 C34.206,54.618 35.461,50.059 36.526,45.473 C33.381,42.766 30.189,40.115 27.029,37.427 C26.314,36.846 25.537,36.24 25.227,35.337 C24.468,33.522 25.668,31.157 27.657,30.874 C32.389,30.474 37.154,30.306 41.874,29.872 C43.507,25.971 45.077,22.039 46.692,18.126 C46.993,17.343 47.339,16.53 48.025,16.008 Z" style="stroke:none;fill-rule:nonzero;fill:#64ad97;fill-opacity:1;"/>
        </g>
    </g>
</svg>
