<?xml version="1.0"?>
<svg version="1.1" xmlns="http://www.w3.org/2000/svg" xmlns:xlink="http://www.w3.org/1999/xlink" width="100" height="100">
    <desc iVinci="yes" version="4.4" gridStep="20" showGrid="no" snapToGrid="no" codePlatform="0"/>
    <g id="Layer1">
        <g id="Shape1">
            <desc type="0" basicInfo-basicType="0" basicInfo-roundedRectRadius="12" basicInfo-polygonSides="6" basicInfo-starPoints="5" bounding="rect(-50,-44,100,88)" text="" font-familyName="" font-pixelSize="20" font-bold="0" font-underline="0" font-alignment="1" strokeStyle="0" markerStart="0" markerEnd="0" shadowEnabled="0" shadowOffsetX="0" shadowOffsetY="2" shadowBlur="4" shadowOpacity="160" blurEnabled="0" blurRadius="4" transform="matrix(1,0,0,1,50,50)" pers-center="0,0" pers-size="0,0" pers-start="0,0" pers-end="0,0" locked="0" mesh="" flag=""/>
            <path id="shapePath1" d="M94,6 L6,6 C2.687,6 0,8.687 0,12 L0,88 C0,91.313 2.687,94 6,94 L94,94 C97.314,94 100,91.312 100,88 L100,12 C100,8.686 97.314,6 94,6 M79,10 C81.205,10 83,11.794 83,14 C83,16.206 81.205,18 79,18 C76.795,18 75,16.206 75,14 C75,11.794 76.795,10 79,10 M68,10 C70.205,10 72,11.794 72,14 C72,16.206 70.205,18 68,18 C65.795,18 64,16.206 64,14 C64,11.794 65.795,10 68,10 M94,88 L6,88 L6,22 L94,22 L94,88 M90,18 C87.795,18 86,16.206 86,14 C86,11.794 87.795,10 90,10 C92.205,10 94,11.794 94,14 C94,16.206 92.205,18 90,18 " style="stroke:none;fill-rule:nonzero;fill:#64ad97;fill-opacity:1;"/>
        </g>
        <g id="Shape2">
            <desc type="0" basicInfo-basicType="0" basicInfo-roundedRectRadius="12" basicInfo-polygonSides="6" basicInfo-starPoints="5" bounding="rect(-2.10839,-5.85726,4.21678,11.7145)" text="" font-familyName="" font-pixelSize="20" font-bold="0" font-underline="0" font-alignment="1" strokeStyle="0" markerStart="0" markerEnd="0" shadowEnabled="0" shadowOffsetX="0" shadowOffsetY="2" shadowBlur="4" shadowOpacity="160" blurEnabled="0" blurRadius="4" transform="matrix(1,0,0,1,49.9994,38.4557)" pers-center="0,0" pers-size="0,0" pers-start="0,0" pers-end="0,0" locked="0" mesh="" flag=""/>
            <path id="shapePath2" d="M47.914,32.733 C49.301,32.546 50.713,32.564 52.1,32.725 C52.114,36.576 52.106,40.424 52.1,44.275 C50.696,44.204 49.291,44.197 47.891,44.313 C47.952,40.452 47.893,36.59 47.914,32.733 Z" style="stroke:none;fill-rule:nonzero;fill:#64ad97;fill-opacity:1;"/>
        </g>
        <g id="Shape3">
            <desc type="0" basicInfo-basicType="0" basicInfo-roundedRectRadius="12" basicInfo-polygonSides="6" basicInfo-starPoints="5" bounding="rect(-4.1295,-6.137,8.259,12.274)" text="" font-familyName="" font-pixelSize="20" font-bold="0" font-underline="0" font-alignment="1" strokeStyle="0" markerStart="0" markerEnd="0" shadowEnabled="0" shadowOffsetX="0" shadowOffsetY="2" shadowBlur="4" shadowOpacity="160" blurEnabled="0" blurRadius="4" transform="matrix(1,0,0,1,37.0365,41.048)" pers-center="0,0" pers-size="0,0" pers-start="0,0" pers-end="0,0" locked="0" mesh="" flag=""/>
            <path id="shapePath3" d="M32.907,36.473 C34.165,35.93 35.424,35.388 36.71,34.911 C38.238,38.47 39.711,42.056 41.166,45.643 C39.82,46.035 38.586,46.712 37.272,47.185 C35.862,43.597 34.273,40.079 32.907,36.473 Z" style="stroke:none;fill-rule:nonzero;fill:#64ad97;fill-opacity:1;"/>
        </g>
        <g id="Shape4">
            <desc type="0" basicInfo-basicType="0" basicInfo-roundedRectRadius="12" basicInfo-polygonSides="6" basicInfo-starPoints="5" bounding="rect(-4.128,-6.1245,8.256,12.249)" text="" font-familyName="" font-pixelSize="20" font-bold="0" font-underline="0" font-alignment="1" strokeStyle="0" markerStart="0" markerEnd="0" shadowEnabled="0" shadowOffsetX="0" shadowOffsetY="2" shadowBlur="4" shadowOpacity="160" blurEnabled="0" blurRadius="4" transform="matrix(1,0,0,1,62.983,41.0555)" pers-center="0,0" pers-size="0,0" pers-start="0,0" pers-end="0,0" locked="0" mesh="" flag=""/>
            <path id="shapePath4" d="M58.855,45.626 C60.308,42.051 61.781,38.48 63.304,34.931 C64.597,35.377 65.857,35.925 67.111,36.467 C65.741,40.071 64.159,43.594 62.738,47.18 C61.432,46.698 60.182,46.063 58.855,45.626 Z" style="stroke:none;fill-rule:nonzero;fill:#64ad97;fill-opacity:1;"/>
        </g>
        <g id="Shape5">
            <desc type="0" basicInfo-basicType="0" basicInfo-roundedRectRadius="12" basicInfo-polygonSides="6" basicInfo-starPoints="5" bounding="rect(-5.524,-5.5625,11.048,11.125)" text="" font-familyName="" font-pixelSize="20" font-bold="0" font-underline="0" font-alignment="1" strokeStyle="0" markerStart="0" markerEnd="0" shadowEnabled="0" shadowOffsetX="0" shadowOffsetY="2" shadowBlur="4" shadowOpacity="160" blurEnabled="0" blurRadius="4" transform="matrix(1,0,0,1,26.064,48.4375)" pers-center="0,0" pers-size="0,0" pers-start="0,0" pers-end="0,0" locked="0" mesh="" flag=""/>
            <path id="shapePath5" d="M20.54,45.884 C21.253,44.734 22.415,43.773 23.465,42.875 C26.123,45.672 28.98,48.279 31.588,51.113 C30.502,51.974 29.599,53.027 28.615,54 C25.949,51.268 23.218,48.6 20.54,45.884 Z" style="stroke:none;fill-rule:nonzero;fill:#64ad97;fill-opacity:1;"/>
        </g>
        <g id="Shape6">
            <desc type="0" basicInfo-basicType="0" basicInfo-roundedRectRadius="12" basicInfo-polygonSides="6" basicInfo-starPoints="5" bounding="rect(-5.5255,-5.5235,11.051,11.047)" text="" font-familyName="" font-pixelSize="20" font-bold="0" font-underline="0" font-alignment="1" strokeStyle="0" markerStart="0" markerEnd="0" shadowEnabled="0" shadowOffsetX="0" shadowOffsetY="2" shadowBlur="4" shadowOpacity="160" blurEnabled="0" blurRadius="4" transform="matrix(1,0,0,1,73.9495,48.4695)" pers-center="0,0" pers-size="0,0" pers-start="0,0" pers-end="0,0" locked="0" mesh="" flag=""/>
            <path id="shapePath6" d="M76.538,42.946 C77.633,43.677 78.738,44.777 79.475,45.871 C76.793,48.598 74.073,51.284 71.377,53.993 C70.436,52.963 69.43,52 68.424,51.036 C71.127,48.337 73.814,45.624 76.538,42.946 Z" style="stroke:none;fill-rule:nonzero;fill:#64ad97;fill-opacity:1;"/>
        </g>
        <g id="Shape7">
            <desc type="0" basicInfo-basicType="0" basicInfo-roundedRectRadius="12" basicInfo-polygonSides="6" basicInfo-starPoints="5" bounding="rect(-6.134,-4.1295,12.268,8.259)" text="" font-familyName="" font-pixelSize="20" font-bold="0" font-underline="0" font-alignment="1" strokeStyle="0" markerStart="0" markerEnd="0" shadowEnabled="0" shadowOffsetX="0" shadowOffsetY="2" shadowBlur="4" shadowOpacity="160" blurEnabled="0" blurRadius="4" transform="matrix(1,0,0,1,18.635,59.4405)" pers-center="0,0" pers-size="0,0" pers-start="0,0" pers-end="0,0" locked="0" mesh="" flag=""/>
            <path id="shapePath7" d="M14.074,55.311 C17.683,56.649 21.185,58.264 24.769,59.674 C24.335,60.999 23.617,62.221 23.236,63.57 C19.658,62.088 16.072,60.618 12.501,59.119 C12.984,57.835 13.521,56.568 14.074,55.311 Z" style="stroke:none;fill-rule:nonzero;fill:#64ad97;fill-opacity:1;"/>
        </g>
        <g id="Shape8">
            <desc type="0" basicInfo-basicType="0" basicInfo-roundedRectRadius="12" basicInfo-polygonSides="6" basicInfo-starPoints="5" bounding="rect(-6.131,-4.128,12.262,8.256)" text="" font-familyName="" font-pixelSize="20" font-bold="0" font-underline="0" font-alignment="1" strokeStyle="0" markerStart="0" markerEnd="0" shadowEnabled="0" shadowOffsetX="0" shadowOffsetY="2" shadowBlur="4" shadowOpacity="160" blurEnabled="0" blurRadius="4" transform="matrix(1,0,0,1,81.369,59.439)" pers-center="0,0" pers-size="0,0" pers-start="0,0" pers-end="0,0" locked="0" mesh="" flag=""/>
            <path id="shapePath8" d="M75.238,59.674 C78.826,58.264 82.334,56.653 85.945,55.311 C86.511,56.559 87.031,57.831 87.5,59.117 C83.939,60.624 80.369,62.102 76.788,63.567 C76.377,62.225 75.684,60.997 75.238,59.674 Z" style="stroke:none;fill-rule:nonzero;fill:#64ad97;fill-opacity:1;"/>
        </g>
        <g id="Shape9">
            <desc type="0" basicInfo-basicType="0" basicInfo-roundedRectRadius="12" basicInfo-polygonSides="6" basicInfo-starPoints="5" bounding="rect(-9.124,-8.8735,18.248,17.747)" text="" font-familyName="" font-pixelSize="20" font-bold="0" font-underline="0" font-alignment="1" strokeStyle="0" markerStart="0" markerEnd="0" shadowEnabled="0" shadowOffsetX="0" shadowOffsetY="2" shadowBlur="4" shadowOpacity="160" blurEnabled="0" blurRadius="4" transform="matrix(1,0,0,1,53.957,71.7925)" pers-center="0,0" pers-size="0,0" pers-start="0,0" pers-end="0,0" locked="0" mesh="" flag=""/>
            <path id="shapePath9" d="M50.882,70.779 C50.543,70.708 50.194,70.666 49.833,70.666 C47.071,70.666 44.833,72.904 44.833,75.666 C44.833,78.428 47.071,80.666 49.833,80.666 C52.574,80.666 54.795,78.459 54.828,75.725 L63.081,62.919 L50.882,70.779 Z" style="stroke:none;fill-rule:nonzero;fill:#64ad97;fill-opacity:1;"/>
        </g>
    </g>
</svg>
